<?xml version="1.0" encoding="utf-8"?>
<!-- Generator: Adobe Illustrator 16.0.4, SVG Export Plug-In . SVG Version: 6.00 Build 0)  -->
<!DOCTYPE svg PUBLIC "-//W3C//DTD SVG 1.1//EN" "http://www.w3.org/Graphics/SVG/1.1/DTD/svg11.dtd">
<svg version="1.1" id="Final_Art" xmlns="http://www.w3.org/2000/svg" xmlns:xlink="http://www.w3.org/1999/xlink" x="0px" y="0px"
	 width="566.97px" height="247.43px" viewBox="0 0 566.97 247.43" enable-background="new 0 0 566.97 247.43" xml:space="preserve">
<polygon points="551.91,15.39 358.41,42.59 358.41,0 0,50.37 0,247.43 303.02,204.85 303.02,247.43 551.34,212.53 527.71,118.48 "/>
<polygon fill="#6CC04A" points="17.14,65.27 341.27,19.71 341.27,182.17 17.14,227.72 "/>
<polygon fill="#6CC04A" points="358.41,197.06 358.41,59.89 529.51,35.84 510.08,118.62 530.08,198.22 325.53,226.97 "/>
<g>
	<path fill="#FFFFFF" d="M48.44,205.82l-3.88-18.9l24.24-3.41c3.55-0.5,4.2-1.58,4.2-4.71V155.9c0-5.11-1.13-4.79-5.66-4.15
		l-13.09,1.84c-6.3,0.89-11.63-0.34-11.63-11.05v-41.53c0-8.57,4.36-14.78,14.38-16.19l32-4.5l3.55,18.94l-25.69,3.61
		c-3.07,0.43-4.2,1.41-4.2,4.54v23.89c0,3.79,0.32,4.24,3.88,3.74l15.84-2.23c6.62-0.93,11.15,0.58,11.15,8.49l0,44
		c0,9.72-4.85,14.85-14.54,16.22L48.44,205.82z"/>
	<path fill="#FFFFFF" d="M143.46,72.67l5.01,18.74l-16.32,2.29l0,100.35l-21.33,3l0-100.36l-16.16,2.27l5.33-20.19L143.46,72.67z"/>
	<path fill="#FFFFFF" d="M164.95,174.12l-2.1,15.62L142,192.67l20.52-122.68l24.4-3.43l20.36,116.94l-20.68,2.91l-2.26-15.01
		L164.95,174.12z M166.37,157.79l14.71-2.07l-7.27-58.14L166.37,157.79z"/>
	<path fill="#FFFFFF" d="M271.2,126.23c0,4.61-4.04,9.63-11.47,10.68l12.6,37.45l-21.65,3.04l-11.63-37.58l-5.82,0.82v39.22
		l-20.68,2.91V62.96l44.12-6.2c9.7-1.36,14.54,2.9,14.54,12.62L271.2,126.23z M232.23,78.18v46.14l13.57-1.91
		c3.07-0.43,3.88-1.7,3.88-4.83V80.01c0-2.64-1.13-4.13-3.88-3.74L232.23,78.18z"/>
	<path fill="#FFFFFF" d="M325.82,47.04l5.01,18.74l-16.32,2.29v100.35l-21.33,3V71.07l-16.16,2.27l5.33-20.19L325.82,47.04z"/>
</g>
<g>
	<path d="M40.84,198.82l-3.88-18.9l24.24-3.41c3.55-0.5,4.2-1.58,4.2-4.71V148.9c0-5.11-1.13-4.78-5.66-4.15l-13.09,1.84
		c-6.3,0.89-11.63-0.34-11.63-11.05V94.01c0-8.57,4.36-14.79,14.38-16.19l32-4.5l3.55,18.95l-25.69,3.61
		c-3.07,0.43-4.2,1.41-4.2,4.54v23.89c0,3.79,0.32,4.24,3.88,3.74l15.84-2.23c6.62-0.93,11.15,0.58,11.15,8.49l0,44
		c0,9.72-4.85,14.85-14.54,16.21L40.84,198.82z"/>
	<path d="M135.85,65.67l5.01,18.74l-16.32,2.29l0,100.35l-21.33,3l0-100.35l-16.16,2.27l5.33-20.19L135.85,65.67z"/>
	<path d="M157.35,167.13l-2.1,15.62l-20.85,2.93l20.52-122.68l24.4-3.43l20.36,116.94L179,179.41l-2.26-15.01L157.35,167.13z
		 M159.77,150.8l14.7-2.07L167.2,90.6L159.77,150.8z"/>
	<path d="M263.6,119.23c0,4.61-4.04,9.63-11.47,10.68l12.6,37.45l-21.65,3.04l-11.63-37.58l-5.82,0.82v39.22l-20.68,2.91V55.96
		l44.11-6.2c9.7-1.36,14.54,2.9,14.54,12.62L263.6,119.23z M225.63,71.18v46.14l13.57-1.91c3.07-0.43,3.88-1.7,3.88-4.83V73.01
		c0-2.64-1.13-4.13-3.88-3.74L225.63,71.18z"/>
	<path d="M318.22,40.04l5.01,18.74l-16.32,2.29v100.35l-21.33,3V64.07l-16.16,2.27l5.33-20.19L318.22,40.04z"/>
</g>
<g>
	<path fill="#FFFFFF" d="M399.54,199.06c-12.6,1.77-16.81-2.25-16.81-14.61V94.97c0-8.57,5.82-14.17,12.93-15.16l29.73-4.18
		l3.72,18.92l-20.84,2.93c-2.91,0.41-3.72,1.84-3.72,4.31v73.33c0,2.47,0.48,3.72,3.39,3.31l21.17-2.98l-3.88,19.99L399.54,199.06z"
		/>
	<path fill="#FFFFFF" d="M496.01,125.82c0,8.57-3.23,16.27-15.35,17.98l-28.28,3.97c-12.12,1.7-15.51-5.07-15.51-13.64V88.18
		c0-8.57,4.36-14.78,14.54-16.22l30.22-4.25c10.02-1.41,14.38,3.58,14.38,12.15L496.01,125.82z M461.59,88.66
		c-2.91,0.41-3.72,2.01-3.72,4.64v31.28c0,3.13,0.49,4.22,3.88,3.74l9.21-1.29c3.55-0.5,4.04-1.72,4.04-4.85V90.9
		c0-2.64-0.97-3.98-3.88-3.58L461.59,88.66z"/>
	<polygon fill="#FFFFFF" points="482.81,171.34 474.28,172.54 480.08,159.95 471.55,161.15 477.36,148.57 458.49,151.21 
		450.44,168.65 458.96,167.45 453.16,180.04 462.13,178.78 455.56,196.37 	"/>
</g>
<g>
	<path d="M392.02,192.06c-12.6,1.77-16.81-2.25-16.81-14.61V87.97c0-8.57,5.82-14.17,12.93-15.16l29.73-4.18l3.72,18.92l-20.84,2.93
		c-2.91,0.41-3.72,1.84-3.72,4.31v73.33c0,2.47,0.48,3.72,3.39,3.31l21.17-2.98l-3.88,19.99L392.02,192.06z"/>
	<path d="M488.49,118.82c0,8.57-3.23,16.27-15.35,17.98l-28.28,3.97c-12.12,1.7-15.51-5.07-15.51-13.64V81.18
		c0-8.57,4.36-14.78,14.54-16.22l30.22-4.25c10.02-1.41,14.38,3.58,14.38,12.15L488.49,118.82z M454.07,81.66
		c-2.91,0.41-3.72,2.01-3.72,4.64v31.28c0,3.13,0.49,4.22,3.88,3.74l9.21-1.29c3.55-0.5,4.04-1.72,4.04-4.85V83.9
		c0-2.64-0.97-3.98-3.88-3.58L454.07,81.66z"/>
	<polygon points="475.29,164.35 466.76,165.54 472.56,152.96 464.03,154.15 469.84,141.57 450.97,144.21 442.92,161.65 
		451.44,160.45 445.64,173.04 454.61,171.78 448.04,189.37 	"/>
</g>
<g>
	<path d="M558.2,205h-1.68v7.33h-1.71V205h-1.93l0.3-1.39h5.33L558.2,205z"/>
	<path d="M566.97,212.33h-1.7v-5.78l-2.09,4.91l-2.13-4.92v5.79h-1.64v-8.72h2.06l1.71,4.29l1.68-4.29h2.11V212.33z"/>
</g>
</svg>
